<?xml version="1.0" encoding="iso-8859-1"?>
<!-- Generator: Adobe Illustrator 19.0.0, SVG Export Plug-In . SVG Version: 6.00 Build 0)  -->
<svg version="1.1" id="Layer_1" xmlns="http://www.w3.org/2000/svg" xmlns:xlink="http://www.w3.org/1999/xlink" x="0px" y="0px"
	 viewBox="0 0 511.999 511.999" style="enable-background:new 0 0 511.999 511.999;" xml:space="preserve">
<path style="fill:#A3875E;" d="M325.963,307.89c-32.532,9.597-76.315-2.718-76.315-2.718c-2.434,28.929-34.618,40.77-34.618,40.77
	h-12.263c-9.229,0-24.536-2.033-32.743-6.247c-10.071-5.183-21.038-14.623-26.264-31.805c0,0-25.231,4.836-59.733-12.389
	c-22.102-11.041-47.997-31.12-73.492-67.308c0,0,70.047,84.153,154.474,27.591c45.911-30.762,64.927-36.893,100.029-36.893
	c51.189,0,52.622,6.69,70.753,6.69c30.825,0,38.737-50.062,80.782-58.49s69.088,28.086,84.891,40.033
	c0,0-11.746,40.728-84.891,56.183v6.595c-1.991,54.392-47.449,53.855-47.449,53.855v22.397h-8.122
	c-3.793,0-7.543-0.843-10.904-2.592C333.538,334.944,327.406,321.185,325.963,307.89z"/>
<path d="M225.699,212.698c-0.736,0.195-1.473,0.397-2.212,0.608c-5.595,1.598-8.836,7.428-7.239,13.022
	c1.322,4.629,5.54,7.646,10.125,7.646c0.958,0,1.931-0.132,2.897-0.408c0.609-0.174,1.216-0.341,1.823-0.503
	c5.625-1.491,8.977-7.259,7.486-12.882C237.089,214.559,231.319,211.21,225.699,212.698z"/>
<path d="M507.817,198.721c-2.632-1.99-5.882-5.009-9.645-8.506c-16.633-15.45-44.464-41.31-83.67-33.453
	c-25.42,5.095-40.037,23.015-51.783,37.413c-10.556,12.94-17.503,20.872-26.928,20.872c-5.672,0-9.228-0.746-14.609-1.874
	c-9.69-2.032-22.961-4.814-56.144-4.814c-3.292,0-6.294,0.052-9.172,0.157c-5.815,0.214-10.355,5.101-10.141,10.914
	c0.213,5.815,5.108,10.364,10.914,10.141c2.619-0.097,5.367-0.143,8.398-0.143c30.998,0,43.032,2.524,51.819,4.367
	c5.696,1.195,11.078,2.323,18.934,2.323c19.907,0,31.776-14.551,43.255-28.622c10.612-13.011,21.586-26.462,39.598-30.073
	c28.616-5.738,49.756,13.896,65.187,28.232c1.651,1.535,3.214,2.987,4.715,4.344c-5.672,9.635-21.478,28.661-61.438,39.886v-2.725
	c0-5.817-4.718-10.535-10.535-10.535s-10.535,4.718-10.535,10.535v16.16c0,0.027,0,0.056,0,0.083v6.303
	c-1.636,42.178-33.262,43.506-36.79,43.52c-0.041-0.001-0.083-0.001-0.124-0.001c-2.771,0-5.432,1.091-7.405,3.043
	c-2.002,1.978-3.13,4.676-3.13,7.492v11.636c-1.297-0.222-2.53-0.605-3.628-1.177c-11.084-5.768-17.144-14.751-18.525-27.465
	c-1.771-16.292,4.938-32.439,5.053-32.713c2.28-5.34-0.193-11.523-5.53-13.816c-5.345-2.3-11.542,0.173-13.839,5.519
	c-0.316,0.735-6.675,15.78-7.027,33.858c-20.128,3.506-43.301-0.289-54.999-2.774c-0.927-10.357-4.773-21.221-11.514-32.419
	c-3-4.985-9.473-6.594-14.459-3.595c-4.985,3.001-6.595,9.474-3.595,14.459c6.441,10.702,9.342,20.465,8.622,29.02
	c-1.567,18.627-20.64,28.581-26.246,31.117h-10.137c-8.708,0-22.009-2.043-27.922-5.079c-10.265-5.283-17.269-13.693-20.836-24.989
	c-1.259-5.077-6.022-8.443-11.19-7.943c-0.147,0.014-0.296,0.042-0.444,0.061c-0.174,0.024-0.347,0.039-0.521,0.072
	c-0.22,0.042-22.656,3.757-53.118-11.453c-1.373-0.685-2.742-1.398-4.103-2.137c24.696,4.62,54.529,1.843,86.24-19.403
	c13.782-9.233,24.489-15.799,33.695-20.665c5.144-2.718,7.11-9.093,4.391-14.237c-2.718-5.144-9.096-7.112-14.237-4.391
	c-9.868,5.216-21.173,12.138-35.578,21.789c-31.449,21.071-64.338,23.435-97.751,7.027c-25.921-12.728-42.608-32.421-42.762-32.605
	c-3.617-4.345-10.018-5.062-14.506-1.621c-4.488,3.44-5.46,9.807-2.204,14.429c23.086,32.768,49.126,56.543,77.398,70.665
	c23.791,11.877,43.8,14.105,55.464,14.105c0.67,0,1.305-0.008,1.919-0.022c5.864,13.104,15.583,23.407,28.507,30.057
	c10.588,5.437,28.259,7.41,37.554,7.41h12.184c0.027,0,0.054,0.003,0.08,0.003c0.023,0,0.047-0.003,0.071-0.003h52.181
	c5.817,0,10.535-4.718,10.535-10.535c0-5.817-4.718-10.535-10.535-10.535h-19.638c4.136-4.86,7.756-10.675,10.06-17.536
	c9.429,1.918,23.915,4.208,39.381,4.208c6.841,0,13.871-0.459,20.74-1.586c4.312,14.153,13.623,25.24,27.41,32.413
	c4.753,2.475,10.206,3.782,15.768,3.782h37.978c5.817,0,10.535-4.718,10.535-10.535s-4.718-10.535-10.535-10.535h-19.321v-2.553
	c5.026-1.062,11.299-3.037,17.687-6.702c12.721-7.301,28.087-22.709,29.683-54.667c71.133-17.875,84.026-59.811,84.557-61.653
	C512.795,205.852,511.297,201.35,507.817,198.721z"/>
<path d="M426.667,226.782c13.75,0,24.936-11.182,24.936-24.926c0-5.817-4.718-10.535-10.535-10.535
	c-5.817,0-10.535,4.718-10.535,10.535c0,2.127-1.734,3.856-3.866,3.856s-3.866-1.73-3.866-3.856c0-5.817-4.718-10.535-10.535-10.535
	c-5.817,0-10.535,4.718-10.535,10.535C401.73,215.6,412.916,226.782,426.667,226.782z"/>
<g>
</g>
<g>
</g>
<g>
</g>
<g>
</g>
<g>
</g>
<g>
</g>
<g>
</g>
<g>
</g>
<g>
</g>
<g>
</g>
<g>
</g>
<g>
</g>
<g>
</g>
<g>
</g>
<g>
</g>
</svg>
